<svg xmlns="http://www.w3.org/2000/svg" width="512" height="512" viewBox="0 0 256 256"><title>New York Goliaths</title><path d="M128 12 224 44v86c0 57-56 94-96 113-40-19-96-56-96-113V44Z" fill="#0b2265" stroke="#ffffff" stroke-width="9"/><path d="M128 25 211 53v77c0 46-43 78-83 99-40-21-83-53-83-99V53Z" fill="none" stroke="#a71930" stroke-width="7"/><g fill="#ffffff" stroke-linejoin="round" stroke-linecap="round"><path d="m65 145 43-85 19 31 19-43 46 97Z"/><path d="m99 89 9-18 16 28-16-6Zm35-1 12-29 16 31-15-8Z" fill="#a71930"/></g><path d="M61 165h134v37H61Z" fill="#0b2265"/><text x="128" y="195" text-anchor="middle" font-family="sans-serif" font-size="32" font-weight="900" letter-spacing="3" fill="#ffffff">NYG</text></svg>
